<svg version="1.1" id="Layer_1" xmlns="http://www.w3.org/2000/svg" xmlns:xlink="http://www.w3.org/1999/xlink" x="0px" y="0px"
	 width="100%" viewBox="0 0 600 600" enable-background="new 0 0 600 600" xml:space="preserve">
<path fill="#000000" opacity="1.000000" stroke="none" 
	d="
M544.000000,601.000000 
	C362.666656,601.000000 181.833328,601.000000 1.000000,601.000000 
	C1.000000,401.000000 1.000000,201.000000 1.000000,1.000000 
	C201.000000,1.000000 401.000000,1.000000 601.000000,1.000000 
	C601.000000,201.000000 601.000000,401.000000 601.000000,601.000000 
	C582.166687,601.000000 563.333313,601.000000 544.000000,601.000000 
M318.499573,275.498260 
	C317.700134,274.593658 316.900726,273.689056 315.623566,272.333649 
	C314.389008,271.627075 313.154449,270.920471 311.219849,269.813202 
	C310.739746,272.141907 310.365845,273.955566 309.345367,275.584137 
	C304.711029,272.595245 299.709259,271.043457 293.706390,271.344666 
	C293.706390,276.790955 293.706390,281.887604 292.993439,286.959686 
	C291.057159,285.444702 288.574036,284.279236 287.324982,282.325012 
	C285.811737,279.957367 284.484344,278.436768 281.226929,279.175232 
	C281.226929,279.175232 281.010406,278.917633 280.900757,278.306641 
	C280.287567,277.848480 279.674377,277.390289 278.563660,276.707855 
	C278.113495,276.398468 277.663330,276.089050 276.949402,275.393036 
	C276.741821,275.154327 276.497101,274.963135 275.905487,274.356110 
	C275.204956,273.853149 274.504425,273.350189 273.158661,273.033661 
	C272.076080,274.114655 270.993500,275.195648 269.260193,276.010681 
	C264.221436,273.042358 259.154236,270.189484 252.007919,272.016296 
	C249.871933,272.528534 247.735947,273.040771 245.738129,273.295197 
	C245.738129,273.295197 246.159988,273.268616 246.159988,273.268616 
	C246.159988,273.268616 246.432083,273.560303 245.501694,273.284424 
	C243.634613,272.859314 241.767517,272.434174 239.237564,271.523376 
	C231.512009,271.523376 223.786438,271.523376 215.721054,271.523376 
	C215.721054,290.975861 215.709167,310.178986 215.774185,329.381866 
	C215.776291,330.006500 216.563095,330.628418 216.987106,332.010559 
	C217.141968,336.364349 219.353577,339.081238 223.736633,338.904785 
	C232.113235,338.567474 240.466385,337.669922 248.842026,337.274933 
	C251.905548,337.130463 255.000610,337.872314 258.089722,337.991730 
	C261.112244,338.108612 264.170868,338.175598 267.166534,337.841858 
	C269.910004,337.536224 272.919525,335.578674 275.228516,336.277161 
	C279.659119,337.617523 281.965302,335.651154 284.654480,332.928253 
	C287.462982,330.084473 290.671967,327.636200 293.861389,325.846191 
	C294.236053,327.639008 294.610718,329.431793 294.989655,331.983643 
	C296.008362,337.364594 300.047516,339.816345 305.473022,338.723297 
	C309.496033,337.912750 313.651306,337.750488 317.665527,336.908081 
	C319.939056,336.430969 322.147675,335.347229 324.206879,334.212494 
	C327.714172,332.279724 331.080688,330.091492 334.691925,328.760284 
	C334.789703,329.520752 334.887482,330.281189 334.989960,331.816132 
	C335.968109,333.355560 336.730927,335.991333 337.963867,336.233521 
	C342.030884,337.032288 346.366974,337.623505 350.407135,337.015106 
	C353.440155,336.558350 356.018738,335.278870 358.607117,337.916046 
	C359.222137,338.542664 360.408844,338.960754 361.299957,338.909363 
	C370.650970,338.370056 379.990051,337.609131 389.344116,337.144592 
	C393.204315,336.952881 394.119904,334.784393 393.949738,331.578308 
	C393.669830,326.304138 393.330841,321.032654 392.964966,315.763641 
	C392.567474,310.039093 389.727295,307.191498 384.252411,306.429443 
	C384.055817,305.381805 383.859253,304.334167 383.662689,303.286530 
	C383.306702,303.328125 382.950745,303.369720 382.594757,303.411316 
	C382.375061,304.605621 382.155334,305.799957 381.218262,307.101074 
	C380.062775,307.442383 378.907257,307.783661 376.999237,308.136475 
	C376.001648,308.066650 375.004028,307.996796 373.971069,307.149658 
	C372.055878,299.288025 376.883392,290.639557 383.772705,290.048828 
	C387.951508,289.690491 390.762329,287.986725 391.500275,283.806091 
	C392.168457,280.020721 390.529358,277.207458 387.102081,275.256104 
	C386.269104,276.454529 385.567780,277.463562 384.045685,279.653381 
	C384.585114,273.740570 382.901123,271.190582 377.373810,271.445801 
	C370.462646,271.375397 363.548828,271.193237 356.643280,271.358185 
	C355.638763,271.382141 354.673889,273.065399 352.914612,273.979187 
	C351.620789,273.985077 350.326996,273.990997 348.874664,273.246490 
	C347.914917,272.562195 346.955170,271.877899 345.995422,271.193604 
	C345.404297,272.471008 344.813171,273.748444 343.181641,274.257996 
	C342.132172,273.504181 341.082733,272.750336 339.504486,271.375366 
	C338.070465,271.375366 336.636414,271.375366 334.497253,271.375366 
	C334.497253,276.065033 334.497253,280.626190 333.734619,285.044312 
	C332.090546,283.812866 330.515198,282.473114 328.786011,281.375763 
	C326.285431,279.788849 323.673401,278.377563 320.957703,276.359406 
	C320.302185,276.186951 319.646698,276.014496 318.499573,275.498260 
z"/>
<path fill="#111111" opacity="1.000000" stroke="none" 
	d="
M384.427277,307.111572 
	C389.727295,307.191498 392.567474,310.039093 392.964966,315.763641 
	C393.330841,321.032654 393.669830,326.304138 393.949738,331.578308 
	C394.119904,334.784393 393.204315,336.952881 389.344116,337.144592 
	C379.990051,337.609131 370.650970,338.370056 361.299957,338.909363 
	C360.408844,338.960754 359.222137,338.542664 358.607117,337.916046 
	C356.018738,335.278870 353.440155,336.558350 350.407135,337.015106 
	C346.366974,337.623505 342.030884,337.032288 337.963867,336.233521 
	C336.730927,335.991333 335.968109,333.355560 335.429382,331.431885 
	C337.126495,330.966339 338.384216,330.885010 340.033264,330.778412 
	C340.033264,310.942230 340.033264,291.469360 340.033264,271.996521 
	C341.082733,272.750336 342.132172,273.504181 343.648804,274.815430 
	C344.202545,291.258636 344.289093,307.144379 344.202454,323.079071 
	C344.146698,323.409790 344.264130,323.691559 344.524719,324.401794 
	C344.836761,326.876190 345.005615,328.922119 345.174500,330.968018 
	C345.651642,330.927673 346.128784,330.887329 346.605927,330.847015 
	C347.415009,311.896973 348.224091,292.946930 349.033203,273.996887 
	C350.326996,273.990997 351.620789,273.985077 353.397766,274.377258 
	C353.818420,275.857025 353.755859,276.938721 353.436676,278.082184 
	C353.350952,278.755859 353.521881,279.367828 353.787720,280.353882 
	C353.820465,281.492096 353.758270,282.256195 353.336395,283.151123 
	C351.761902,287.270233 350.546326,291.258514 353.788086,295.441040 
	C353.883606,307.503204 353.883606,319.104156 353.883606,330.759338 
	C362.842102,330.759338 371.247375,330.759338 379.691956,330.759338 
	C379.691956,329.077606 379.691956,327.675751 379.691956,325.676270 
	C372.728577,325.676270 366.012024,325.676270 359.411835,325.676270 
	C359.411835,321.297913 359.411835,317.528015 359.411835,313.183594 
	C365.728394,313.183594 371.801483,313.183594 378.064575,313.183594 
	C377.935760,311.100342 377.843781,309.612640 377.751770,308.124939 
	C378.907257,307.783661 380.062775,307.442383 381.676453,307.497437 
	C382.134613,310.802643 382.134613,313.711517 382.134613,316.930603 
	C375.673462,316.930603 369.915283,316.930603 363.702148,316.930603 
	C363.980286,318.581085 364.186310,319.803650 364.334320,320.682098 
	C370.582550,315.365967 377.901764,319.913757 384.427277,317.357330 
	C384.427277,314.055359 384.427277,310.583466 384.427277,307.111572 
M385.176636,322.264160 
	C384.989319,325.336060 384.802002,328.407928 384.600250,331.716278 
	C387.575745,329.046448 387.883392,325.204315 385.176636,322.264160 
z"/>
<path fill="#0E0E0E" opacity="1.000000" stroke="none" 
	d="
M293.705872,325.015045 
	C290.671967,327.636200 287.462982,330.084473 284.654480,332.928253 
	C281.965302,335.651154 279.659119,337.617523 275.228516,336.277161 
	C272.919525,335.578674 269.910004,337.536224 267.166534,337.841858 
	C264.170868,338.175598 261.112244,338.108612 258.089722,337.991730 
	C255.000610,337.872314 251.905548,337.130463 248.842026,337.274933 
	C240.466385,337.669922 232.113235,338.567474 223.736633,338.904785 
	C219.353577,339.081238 217.141968,336.364349 217.421753,331.532837 
	C220.235260,331.109955 222.614105,331.164795 225.018127,331.616821 
	C227.842133,336.196716 231.957535,333.138916 235.403107,333.764374 
	C235.771530,333.831268 236.464661,332.109436 237.425583,331.134460 
	C242.101944,331.697815 242.448410,329.518433 241.418106,326.101898 
	C239.548218,325.962097 237.778778,325.829803 235.903717,325.365540 
	C233.862152,325.255280 231.926193,325.476990 229.657303,325.784424 
	C226.711197,325.870148 224.098038,325.870148 221.027023,325.870148 
	C221.027023,322.001526 220.943756,318.546387 221.110260,315.103394 
	C221.137527,314.539948 222.265488,314.029724 222.916763,313.982178 
	C222.967651,316.266327 222.710388,318.124176 223.090027,319.841248 
	C223.411179,321.293854 224.469803,322.583344 225.202042,323.945038 
	C226.102722,322.875244 227.003387,321.805450 227.874390,320.438843 
	C227.938370,319.762787 228.032028,319.383545 228.448059,319.009247 
	C229.508102,319.337433 230.245789,319.660706 230.755630,320.006226 
	C230.267624,320.143616 230.007446,320.258759 229.747269,320.373901 
	C229.830597,320.490051 229.980286,320.711853 229.987747,320.707153 
	C230.336090,320.488525 230.672043,320.250153 231.453659,320.006165 
	C234.935211,319.433685 237.972565,318.869141 241.402420,318.219421 
	C242.860275,318.188354 243.925613,318.242462 244.929108,318.588928 
	C245.001846,322.638824 245.069229,326.401367 245.349228,330.148010 
	C245.387726,330.663147 246.747528,331.618805 247.036179,331.471283 
	C247.795242,331.083405 248.741806,330.254120 248.834396,329.504456 
	C249.348114,325.345062 249.534241,321.181122 246.046082,317.540192 
	C246.174454,314.389557 246.251999,311.687164 246.674347,308.971130 
	C248.980042,307.635986 250.940964,306.314423 252.994736,305.453857 
	C253.087585,314.116669 253.087585,322.318451 253.087585,330.413330 
	C254.769974,330.940094 256.251862,331.404083 258.025726,331.990906 
	C259.208008,332.068970 260.098297,332.024170 261.375122,331.976257 
	C264.503143,331.316223 267.244659,330.659332 270.010742,330.273560 
	C270.403442,330.894531 270.771576,331.244385 271.139679,331.594238 
	C271.093933,331.062012 271.048187,330.529785 271.043945,329.681641 
	C271.713654,328.914246 272.341827,328.462738 272.988495,328.277527 
	C273.653748,328.381897 274.300507,328.219971 274.976105,328.041138 
	C275.004944,328.024261 275.053223,327.978027 275.290771,327.983093 
	C275.528320,327.988159 276.003418,327.997559 276.094116,328.156769 
	C276.455383,328.209839 276.725952,328.103699 277.259033,327.804169 
	C278.682922,326.110840 279.844299,324.610962 281.333862,323.024200 
	C281.792450,322.294067 281.922913,321.650787 282.023254,321.005737 
	C281.993164,321.003967 282.006531,321.062836 282.351959,320.985352 
	C284.136200,318.198151 285.946655,315.618561 286.949219,312.756012 
	C291.183105,300.667053 288.646881,289.555389 281.559174,279.228882 
	C284.484344,278.436768 285.811737,279.957367 287.324982,282.325012 
	C288.574036,284.279236 291.057159,285.444702 293.442200,287.432922 
	C293.824799,293.609711 293.758606,299.313263 293.369995,305.113922 
	C293.261627,306.168274 293.475739,307.125488 293.785645,308.471405 
	C293.822937,314.245056 293.764404,319.630066 293.705872,325.015045 
z"/>
<path fill="#0E0E0E" opacity="1.000000" stroke="none" 
	d="
M334.506348,328.010590 
	C331.080688,330.091492 327.714172,332.279724 324.206879,334.212494 
	C322.147675,335.347229 319.939056,336.430969 317.665527,336.908081 
	C313.651306,337.750488 309.496033,337.912750 305.473022,338.723297 
	C300.047516,339.816345 296.008362,337.364594 295.393829,331.487976 
	C299.125031,330.293701 302.452026,329.595123 306.117310,329.045898 
	C307.426727,329.202728 308.397949,329.210236 309.369141,329.217712 
	C308.934723,328.695007 308.500305,328.172302 308.313263,327.383301 
	C314.356995,323.391968 318.496887,318.291473 320.932861,311.870819 
	C325.799042,299.044983 322.077759,286.878571 309.991913,275.769226 
	C310.365845,273.955566 310.739746,272.141907 311.219849,269.813202 
	C313.154449,270.920471 314.389008,271.627075 315.815277,272.946381 
	C316.996460,274.697693 317.985901,275.836273 319.008972,277.008972 
	C319.042572,277.043060 319.109833,277.111237 319.153259,277.454224 
	C319.766144,278.775299 320.277283,279.793182 320.913818,280.725433 
	C330.162354,294.270660 329.699432,310.287323 319.403687,323.254852 
	C319.060364,324.198273 318.983429,324.985809 318.906494,325.773376 
	C319.611176,324.968231 320.315887,324.163055 321.332031,323.188721 
	C322.313721,322.310333 323.098389,321.678406 323.637238,320.880463 
	C332.714661,307.438751 331.732147,292.826660 320.833496,277.196686 
	C320.924469,277.094147 321.108917,276.891327 321.108917,276.891327 
	C323.673401,278.377563 326.285431,279.788849 328.786011,281.375763 
	C330.515198,282.473114 332.090546,283.812866 334.229980,285.500000 
	C334.652344,299.973999 334.579346,313.992310 334.506348,328.010590 
M312.268188,330.430389 
	C311.983887,330.700195 311.696899,330.967468 311.430450,331.253845 
	C311.423492,331.261322 311.640961,331.477539 311.753754,331.596405 
	C312.038239,331.325653 312.322723,331.054932 312.268188,330.430389 
M316.343811,328.157990 
	C316.112701,327.906433 315.881622,327.654877 315.650513,327.403320 
	C315.493896,327.931641 315.337280,328.459991 315.180664,328.988342 
	C315.501312,328.870270 315.821930,328.752228 316.343811,328.157990 
z"/>
<path fill="#F3F3F3" opacity="1.000000" stroke="none" 
	d="
M257.733734,331.868042 
	C256.251862,331.404083 254.769974,330.940094 253.087585,330.413330 
	C253.087585,322.318451 253.087585,314.116669 253.073288,305.059875 
	C253.005249,303.139008 252.951508,302.073090 252.991379,300.546326 
	C253.036942,290.722107 252.988861,281.358765 252.940796,271.995392 
	C259.154236,270.189484 264.221436,273.042358 269.724060,276.442139 
	C289.949341,292.134125 284.037659,323.081696 260.317596,330.271759 
	C259.209991,330.791229 258.471863,331.329651 257.733734,331.868042 
M276.230988,306.465118 
	C279.220123,292.102600 270.298462,280.156189 258.561462,277.718201 
	C258.561462,293.389313 258.561462,309.077789 258.561462,325.105957 
	C267.775055,322.056641 273.752808,316.468597 276.230988,306.465118 
z"/>
<path fill="#F3F3F3" opacity="1.000000" stroke="none" 
	d="
M305.779053,328.896545 
	C302.452026,329.595123 299.125031,330.293701 295.391724,331.108459 
	C294.610718,329.431793 294.236053,327.639008 293.783630,325.430603 
	C293.764404,319.630066 293.822937,314.245056 293.865295,308.171082 
	C293.796875,306.660339 293.744659,305.838593 293.692444,305.016815 
	C293.758606,299.313263 293.824799,293.609711 293.798676,287.445190 
	C293.706390,281.887604 293.706390,276.790955 293.706390,271.344666 
	C299.709259,271.043457 304.711029,272.595245 309.668640,275.676697 
	C322.077759,286.878571 325.799042,299.044983 320.932861,311.870819 
	C318.496887,318.291473 314.356995,323.391968 308.052185,327.447052 
	C306.955505,328.150269 306.367279,328.523407 305.779053,328.896545 
M306.471100,322.123138 
	C315.716736,315.312317 319.502869,306.143616 316.777649,295.058929 
	C314.557465,286.028656 308.876801,279.620117 299.237946,277.022797 
	C299.237946,293.221924 299.237946,308.957458 299.237946,325.341919 
	C301.699982,324.302887 303.782593,323.423950 306.471100,322.123138 
z"/>
<path fill="#F3F3F3" opacity="1.000000" stroke="none" 
	d="
M236.009338,325.697510 
	C237.778778,325.829803 239.548218,325.962097 241.418106,326.101898 
	C242.448410,329.518433 242.101944,331.697815 236.971130,331.048584 
	C232.396515,331.103638 228.694733,331.161621 224.992966,331.219604 
	C222.614105,331.164795 220.235260,331.109955 217.420258,331.153381 
	C216.563095,330.628418 215.776291,330.006500 215.774185,329.381866 
	C215.709167,310.178986 215.721054,290.975861 215.721054,271.523376 
	C223.786438,271.523376 231.512009,271.523376 239.500595,272.130096 
	C238.828384,274.081268 237.893158,275.425690 236.519104,276.638245 
	C232.451172,276.623535 228.822067,276.740753 224.661652,276.723938 
	C223.407501,276.662720 222.684647,276.735474 221.614166,276.878021 
	C221.235764,277.629059 221.204971,278.310364 221.096741,279.455139 
	C221.068588,288.943817 221.117859,297.969025 221.113525,307.273621 
	C221.373917,307.676147 221.687958,307.799316 222.455048,308.013000 
	C226.607330,308.044525 230.306534,307.985504 234.398712,308.009521 
	C236.535507,308.393524 238.279358,308.694550 239.949738,309.376099 
	C239.899139,310.788544 239.921997,311.820404 239.506531,313.013916 
	C234.379471,313.298309 229.690735,313.421021 224.752258,313.427063 
	C223.963242,313.371887 223.423965,313.433380 222.884705,313.494904 
	C222.265488,314.029724 221.137527,314.539948 221.110260,315.103394 
	C220.943756,318.546387 221.027023,322.001526 221.027023,325.870148 
	C224.098038,325.870148 226.711197,325.870148 230.080215,325.875854 
	C232.560486,325.820190 234.284912,325.758850 236.009338,325.697510 
z"/>
<path fill="#111111" opacity="1.000000" stroke="none" 
	d="
M378.003967,271.999603 
	C382.901123,271.190582 384.585114,273.740570 384.045685,279.653381 
	C385.567780,277.463562 386.269104,276.454529 387.102081,275.256104 
	C390.529358,277.207458 392.168457,280.020721 391.500275,283.806091 
	C390.762329,287.986725 387.951508,289.690491 383.772705,290.048828 
	C376.883392,290.639557 372.055878,299.288025 373.530182,307.636444 
	C368.519012,308.123230 363.948700,308.123230 359.151520,308.123230 
	C359.151520,302.269897 359.151520,297.136505 359.151520,292.003113 
	C359.151520,286.930969 359.151520,281.858826 359.151520,276.372986 
	C365.804840,276.372986 371.714508,276.372986 377.703156,276.372986 
	C377.823212,274.627380 377.913574,273.313507 378.003967,271.999603 
M370.075317,281.106262 
	C368.138428,281.106262 366.201569,281.106262 364.313202,281.106262 
	C364.313202,287.627197 364.313202,293.686279 364.313202,299.745361 
	C364.587494,299.783600 364.861755,299.821838 365.136047,299.860077 
	C367.106689,294.274597 369.077301,288.689087 371.934174,282.848053 
	C375.818390,282.848053 379.702637,282.848053 383.586853,282.848053 
	C383.570984,282.311096 383.555115,281.774139 383.539246,281.237183 
	C379.348602,281.237183 375.157959,281.237183 370.075317,281.106262 
z"/>
<path fill="#F3F3F3" opacity="1.000000" stroke="none" 
	d="
M377.688904,271.722717 
	C377.913574,273.313507 377.823212,274.627380 377.703156,276.372986 
	C371.714508,276.372986 365.804840,276.372986 359.151520,276.372986 
	C359.151520,281.858826 359.151520,286.930969 359.151520,292.003113 
	C359.151520,297.136505 359.151520,302.269897 359.151520,308.123230 
	C363.948700,308.123230 368.519012,308.123230 373.547852,308.025085 
	C375.004028,307.996796 376.001648,308.066650 377.375488,308.130707 
	C377.843781,309.612640 377.935760,311.100342 378.064575,313.183594 
	C371.801483,313.183594 365.728394,313.183594 359.411835,313.183594 
	C359.411835,317.528015 359.411835,321.297913 359.411835,325.676270 
	C366.012024,325.676270 372.728577,325.676270 379.691956,325.676270 
	C379.691956,327.675751 379.691956,329.077606 379.691956,330.759338 
	C371.247375,330.759338 362.842102,330.759338 353.883606,330.759338 
	C353.883606,319.104156 353.883606,307.503204 353.864990,294.987457 
	C353.796265,290.388519 353.746155,286.704407 353.696045,283.020264 
	C353.758270,282.256195 353.820465,281.492096 353.864105,280.030334 
	C353.794800,278.895233 353.744049,278.457825 353.693298,278.020447 
	C353.755859,276.938721 353.818420,275.857025 353.785828,274.378052 
	C354.673889,273.065399 355.638763,271.382141 356.643280,271.358185 
	C363.548828,271.193237 370.462646,271.375397 377.688904,271.722717 
z"/>
<path fill="#0E0E0E" opacity="1.000000" stroke="none" 
	d="
M234.005737,307.926483 
	C230.306534,307.985504 226.607330,308.044525 222.360931,307.821045 
	C221.652451,307.292725 221.436920,307.111298 221.167145,306.994232 
	C221.117859,297.969025 221.068588,288.943817 221.314758,279.244568 
	C221.727386,277.983093 221.844574,277.395691 221.961761,276.808258 
	C222.684647,276.735474 223.407501,276.662720 224.206451,276.958618 
	C226.863922,280.000031 234.609390,279.659546 236.957932,276.770142 
	C237.893158,275.425690 238.828384,274.081268 239.832031,272.372925 
	C241.767517,272.434174 243.634613,272.859314 246.042770,273.828308 
	C246.473648,276.409241 246.363449,278.446259 246.268845,280.194977 
	C241.310562,280.574738 237.141785,280.894043 232.540802,281.154236 
	C230.075882,281.137207 228.043137,281.179291 225.809052,281.131042 
	C225.607697,281.040710 225.168228,281.081665 224.768295,281.160095 
	C223.746597,288.107727 223.124847,294.976929 222.422516,302.736298 
	C224.223724,301.555481 224.764877,301.200714 225.593506,300.943176 
	C226.001022,301.152527 226.105087,301.310150 226.246979,301.359894 
	C226.334259,301.390472 226.555374,301.282990 226.587631,301.191895 
	C228.733383,295.130707 230.866013,289.064850 233.450714,282.890228 
	C237.791977,282.781036 241.682297,282.781036 245.599945,282.781036 
	C245.599945,279.163239 245.599945,276.358124 245.599945,273.552979 
	C247.735947,273.040771 249.871933,272.528534 252.474365,272.005859 
	C252.988861,281.358765 253.036942,290.722107 252.617432,300.437988 
	C251.770721,299.455200 251.485809,298.083740 250.990265,296.793152 
	C250.251450,294.868927 249.327240,291.382507 248.546494,291.400269 
	C245.692734,291.465210 241.549271,291.820007 240.295135,293.683319 
	C237.442245,297.921936 236.013367,303.118958 234.005737,307.926483 
z"/>
<path fill="#131313" opacity="1.000000" stroke="none" 
	d="
M260.687073,330.290680 
	C284.037659,323.081696 289.949341,292.134125 270.049408,276.575134 
	C270.993500,275.195648 272.076080,274.114655 273.580017,273.286987 
	C274.739288,273.966705 275.477264,274.393097 276.215210,274.819489 
	C276.497101,274.963135 276.741821,275.154327 277.037598,275.899872 
	C277.770905,276.581848 278.416046,276.756989 279.061188,276.932129 
	C279.674377,277.390289 280.287567,277.848480 280.597626,278.627014 
	C279.989716,279.029755 279.636383,279.047180 279.401306,279.222870 
	C279.289276,279.306580 279.304657,279.762848 279.427002,279.929413 
	C288.640594,292.473114 289.131683,305.540192 281.878876,319.123352 
	C281.619690,319.608734 281.950623,320.409210 282.006531,321.062836 
	C282.006531,321.062836 281.993164,321.003967 281.830261,320.691528 
	C280.922089,321.186249 280.176849,321.993408 279.099121,322.942871 
	C277.528839,324.716125 276.291016,326.347076 275.053223,327.978027 
	C275.053223,327.978027 275.004944,328.024261 274.647888,328.013977 
	C273.850586,328.006195 273.410278,328.008698 272.970001,328.011200 
	C272.341827,328.462738 271.713654,328.914246 270.789856,329.680969 
	C270.324890,329.998291 270.155518,330.000366 269.986176,330.002441 
	C267.244659,330.659332 264.503143,331.316223 261.310577,331.552307 
	C260.802063,330.851227 260.744568,330.570953 260.687073,330.290680 
z"/>
<path fill="#F3F3F3" opacity="1.000000" stroke="none" 
	d="
M334.599121,328.385437 
	C334.579346,313.992310 334.652344,299.973999 334.611298,285.571533 
	C334.497253,280.626190 334.497253,276.065033 334.497253,271.375366 
	C336.636414,271.375366 338.070465,271.375366 339.768860,271.685944 
	C340.033264,291.469360 340.033264,310.942230 340.033264,330.778412 
	C338.384216,330.885010 337.126495,330.966339 335.427002,331.044647 
	C334.887482,330.281189 334.789703,329.520752 334.599121,328.385437 
z"/>
<path fill="#F3F3F3" opacity="1.000000" stroke="none" 
	d="
M348.953918,273.621704 
	C348.224091,292.946930 347.415009,311.896973 346.605927,330.847015 
	C346.128784,330.887329 345.651642,330.927673 345.174500,330.968018 
	C345.005615,328.922119 344.836761,326.876190 344.627808,324.165344 
	C344.517029,323.343628 344.446350,323.186890 344.375641,323.030121 
	C344.289093,307.144379 344.202545,291.258636 344.169006,275.199371 
	C344.813171,273.748444 345.404297,272.471008 345.995422,271.193604 
	C346.955170,271.877899 347.914917,272.562195 348.953918,273.621704 
z"/>
<path fill="#DADADA" opacity="1.000000" stroke="none" 
	d="
M282.351959,320.985352 
	C281.950623,320.409210 281.619690,319.608734 281.878876,319.123352 
	C289.131683,305.540192 288.640594,292.473114 279.427002,279.929413 
	C279.304657,279.762848 279.289276,279.306580 279.401306,279.222870 
	C279.636383,279.047180 279.989716,279.029755 280.652466,278.932495 
	C281.010406,278.917633 281.226929,279.175232 281.393066,279.202057 
	C288.646881,289.555389 291.183105,300.667053 286.949219,312.756012 
	C285.946655,315.618561 284.136200,318.198151 282.351959,320.985352 
z"/>
<path fill="#F3F3F3" opacity="1.000000" stroke="none" 
	d="
M384.339844,306.770508 
	C384.427277,310.583466 384.427277,314.055359 384.427277,317.357330 
	C377.901764,319.913757 370.582550,315.365967 364.334320,320.682098 
	C364.186310,319.803650 363.980286,318.581085 363.702148,316.930603 
	C369.915283,316.930603 375.673462,316.930603 382.134613,316.930603 
	C382.134613,313.711517 382.134613,310.802643 382.035095,307.444031 
	C382.155334,305.799957 382.375061,304.605621 382.594757,303.411316 
	C382.950745,303.369720 383.306702,303.328125 383.662689,303.286530 
	C383.859253,304.334167 384.055817,305.381805 384.339844,306.770508 
z"/>
<path fill="#DADADA" opacity="1.000000" stroke="none" 
	d="
M245.669037,273.424072 
	C245.599945,276.358124 245.599945,279.163239 245.599945,282.781036 
	C241.682297,282.781036 237.791977,282.781036 233.423401,282.593262 
	C232.954453,282.008118 232.963715,281.610718 232.972992,281.213348 
	C237.141785,280.894043 241.310562,280.574738 246.268845,280.194977 
	C246.363449,278.446259 246.473648,276.409241 246.507965,273.966248 
	C246.432083,273.560303 246.159988,273.268616 246.159988,273.268616 
	C246.159988,273.268616 245.738129,273.295197 245.669037,273.424072 
z"/>
<path fill="#171717" opacity="1.000000" stroke="none" 
	d="
M318.975342,276.974854 
	C317.985901,275.836273 316.996460,274.697693 316.054138,273.171753 
	C316.900726,273.689056 317.700134,274.593658 318.756927,275.954163 
	C319.001312,276.598297 318.988312,276.786591 318.975342,276.974854 
z"/>
<path fill="#171717" opacity="1.000000" stroke="none" 
	d="
M276.060364,274.587799 
	C275.477264,274.393097 274.739288,273.966705 273.902618,273.193787 
	C274.504425,273.350189 275.204956,273.853149 276.060364,274.587799 
z"/>
<path fill="#0E0E0E" opacity="1.000000" stroke="none" 
	d="
M319.008972,277.008972 
	C318.988312,276.786591 319.001312,276.598297 319.002747,276.126038 
	C319.646698,276.014496 320.302185,276.186951 321.033325,276.625366 
	C321.108917,276.891327 320.924469,277.094147 320.558899,277.192383 
	C319.832153,277.230835 319.470978,277.171051 319.109833,277.111237 
	C319.109833,277.111237 319.042572,277.043060 319.008972,277.008972 
z"/>
<path fill="#171717" opacity="1.000000" stroke="none" 
	d="
M278.812439,276.820007 
	C278.416046,276.756989 277.770905,276.581848 277.169464,276.093201 
	C277.663330,276.089050 278.113495,276.398468 278.812439,276.820007 
z"/>
<path fill="#000000" opacity="1.000000" stroke="none" 
	d="
M353.336395,283.151123 
	C353.746155,286.704407 353.796265,290.388519 353.769470,294.526245 
	C350.546326,291.258514 351.761902,287.270233 353.336395,283.151123 
z"/>
<path fill="#131313" opacity="1.000000" stroke="none" 
	d="
M385.412048,321.965881 
	C387.883392,325.204315 387.575745,329.046448 384.600250,331.716278 
	C384.802002,328.407928 384.989319,325.336060 385.412048,321.965881 
z"/>
<path fill="#000000" opacity="1.000000" stroke="none" 
	d="
M353.436676,278.082184 
	C353.744049,278.457825 353.794800,278.895233 353.769165,279.656189 
	C353.521881,279.367828 353.350952,278.755859 353.436676,278.082184 
z"/>
<path fill="#000000" opacity="1.000000" stroke="none" 
	d="
M344.202454,323.079071 
	C344.446350,323.186890 344.517029,323.343628 344.484619,323.736877 
	C344.264130,323.691559 344.146698,323.409790 344.202454,323.079071 
z"/>
<path fill="#000000" opacity="1.000000" stroke="none" 
	d="
M234.398712,308.009521 
	C236.013367,303.118958 237.442245,297.921936 240.295135,293.683319 
	C241.549271,291.820007 245.692734,291.465210 248.546494,291.400269 
	C249.327240,291.382507 250.251450,294.868927 250.990265,296.793152 
	C251.485809,298.083740 251.770721,299.455200 252.523804,300.898865 
	C252.951508,302.073090 253.005249,303.139008 252.980438,304.598877 
	C250.940964,306.314423 248.980042,307.635986 246.593933,308.564697 
	C246.041367,306.557617 245.913986,304.943298 245.786606,303.329010 
	C245.303528,303.340576 244.820465,303.352142 244.337387,303.363708 
	C244.174164,305.998962 244.010925,308.634216 243.672897,310.836975 
	C242.339798,309.934845 241.181488,309.465210 240.023193,308.995544 
	C238.279358,308.694550 236.535507,308.393524 234.398712,308.009521 
z"/>
<path fill="#F3F3F3" opacity="1.000000" stroke="none" 
	d="
M243.847717,311.269470 
	C244.010925,308.634216 244.174164,305.998962 244.337387,303.363708 
	C244.820465,303.352142 245.303528,303.340576 245.786606,303.329010 
	C245.913986,304.943298 246.041367,306.557617 246.249146,308.578308 
	C246.251999,311.687164 246.174454,314.389557 245.787888,317.594055 
	C245.316208,318.162933 245.153580,318.229767 244.990952,318.296570 
	C243.925613,318.242462 242.860275,318.188354 240.949310,318.127319 
	C236.111008,318.415070 232.118347,318.709686 228.125687,319.004333 
	C228.032028,319.383545 227.938370,319.762787 227.527893,320.535767 
	C226.647614,320.617859 226.084137,320.306183 225.609406,319.665009 
	C225.623169,318.892822 225.548233,318.450073 225.607574,317.724548 
	C225.810760,317.244690 225.879669,317.047668 226.416534,316.835938 
	C231.251953,316.756592 235.619415,316.691956 240.383224,316.725128 
	C246.103119,317.347870 243.519211,313.504150 243.847717,311.269470 
z"/>
<path fill="#131313" opacity="1.000000" stroke="none" 
	d="
M244.929108,318.588928 
	C245.153580,318.229767 245.316208,318.162933 245.737030,318.042236 
	C249.534241,321.181122 249.348114,325.345062 248.834396,329.504456 
	C248.741806,330.254120 247.795242,331.083405 247.036179,331.471283 
	C246.747528,331.618805 245.387726,330.663147 245.349228,330.148010 
	C245.069229,326.401367 245.001846,322.638824 244.929108,318.588928 
z"/>
<path fill="#131313" opacity="1.000000" stroke="none" 
	d="
M225.018127,331.616821 
	C228.694733,331.161621 232.396515,331.103638 236.552734,331.131531 
	C236.464661,332.109436 235.771530,333.831268 235.403107,333.764374 
	C231.957535,333.138916 227.842133,336.196716 225.018127,331.616821 
z"/>
<path fill="#131313" opacity="1.000000" stroke="none" 
	d="
M225.948578,316.850677 
	C225.879669,317.047668 225.810760,317.244690 225.371857,317.792297 
	C225.174789,318.760101 225.347733,319.377289 225.520676,319.994476 
	C226.084137,320.306183 226.647614,320.617859 227.557587,320.832581 
	C227.003387,321.805450 226.102722,322.875244 225.202042,323.945038 
	C224.469803,322.583344 223.411179,321.293854 223.090027,319.841248 
	C222.710388,318.124176 222.967651,316.266327 222.916748,313.982178 
	C223.423965,313.433380 223.963242,313.371887 224.760925,313.719299 
	C225.329071,315.035706 225.638824,315.943176 225.948578,316.850677 
z"/>
<path fill="#131313" opacity="1.000000" stroke="none" 
	d="
M228.448059,319.009247 
	C232.118347,318.709686 236.111008,318.415070 240.556793,318.212524 
	C237.972565,318.869141 234.935211,319.433685 231.448105,319.998291 
	C230.998337,319.998322 230.983459,319.983978 230.983459,319.983978 
	C230.245789,319.660706 229.508102,319.337433 228.448059,319.009247 
z"/>
<path fill="#171717" opacity="1.000000" stroke="none" 
	d="
M275.290771,327.983093 
	C276.291016,326.347076 277.528839,324.716125 279.375702,322.793732 
	C280.325104,322.705200 280.665405,322.908142 281.005707,323.111084 
	C279.844299,324.610962 278.682922,326.110840 277.010773,327.804565 
	C276.500000,327.998383 276.003418,327.997559 276.003418,327.997559 
	C276.003418,327.997559 275.528320,327.988159 275.290771,327.983093 
z"/>
<path fill="#131313" opacity="1.000000" stroke="none" 
	d="
M235.903717,325.365540 
	C234.284912,325.758850 232.560486,325.820190 230.413147,325.790131 
	C231.926193,325.476990 233.862152,325.255280 235.903717,325.365540 
z"/>
<path fill="#000000" opacity="1.000000" stroke="none" 
	d="
M293.369995,305.113922 
	C293.744659,305.838593 293.796875,306.660339 293.769470,307.782410 
	C293.475739,307.125488 293.261627,306.168274 293.369995,305.113922 
z"/>
<path fill="#DADADA" opacity="1.000000" stroke="none" 
	d="
M281.333862,323.024200 
	C280.665405,322.908142 280.325104,322.705200 279.708191,322.651428 
	C280.176849,321.993408 280.922089,321.186249 281.860352,320.693298 
	C281.922913,321.650787 281.792450,322.294067 281.333862,323.024200 
z"/>
<path fill="#171717" opacity="1.000000" stroke="none" 
	d="
M260.317596,330.271759 
	C260.744568,330.570953 260.802063,330.851227 260.924072,331.555420 
	C260.098297,332.024170 259.208008,332.068970 258.025726,331.990906 
	C258.471863,331.329651 259.209991,330.791229 260.317596,330.271759 
z"/>
<path fill="#171717" opacity="1.000000" stroke="none" 
	d="
M272.988495,328.277527 
	C273.410278,328.008698 273.850586,328.006195 274.619080,328.030884 
	C274.300507,328.219971 273.653748,328.381897 272.988495,328.277527 
z"/>
<path fill="#171717" opacity="1.000000" stroke="none" 
	d="
M270.010742,330.273560 
	C270.155518,330.000366 270.324890,329.998291 270.748352,329.996887 
	C271.048187,330.529785 271.093933,331.062012 271.139679,331.594238 
	C270.771576,331.244385 270.403442,330.894531 270.010742,330.273560 
z"/>
<path fill="#131313" opacity="1.000000" stroke="none" 
	d="
M231.003891,320.006195 
	C230.672043,320.250153 230.336090,320.488525 229.987747,320.707153 
	C229.980286,320.711853 229.830597,320.490051 229.747269,320.373901 
	C230.007446,320.258759 230.267624,320.143616 230.755630,320.006226 
	C230.983459,319.983978 230.998337,319.998322 231.003891,320.006195 
z"/>
<path fill="#131313" opacity="1.000000" stroke="none" 
	d="
M276.094116,328.156769 
	C276.003418,327.997559 276.500000,327.998383 276.748260,327.997986 
	C276.725952,328.103699 276.455383,328.209839 276.094116,328.156769 
z"/>
<path fill="#DADADA" opacity="1.000000" stroke="none" 
	d="
M319.153259,277.454224 
	C319.470978,277.171051 319.832153,277.230835 320.467896,277.294922 
	C331.732147,292.826660 332.714661,307.438751 323.637238,320.880463 
	C323.098389,321.678406 322.313721,322.310333 320.984802,323.174103 
	C320.107452,323.252106 319.888763,323.175568 319.670074,323.098999 
	C329.699432,310.287323 330.162354,294.270660 320.913818,280.725433 
	C320.277283,279.793182 319.766144,278.775299 319.153259,277.454224 
z"/>
<path fill="#171717" opacity="1.000000" stroke="none" 
	d="
M319.403687,323.254852 
	C319.888763,323.175568 320.107452,323.252106 320.673370,323.343262 
	C320.315887,324.163055 319.611176,324.968231 318.906494,325.773376 
	C318.983429,324.985809 319.060364,324.198273 319.403687,323.254852 
z"/>
<path fill="#171717" opacity="1.000000" stroke="none" 
	d="
M306.117310,329.045898 
	C306.367279,328.523407 306.955505,328.150269 307.804810,327.713379 
	C308.500305,328.172302 308.934723,328.695007 309.369141,329.217712 
	C308.397949,329.210236 307.426727,329.202728 306.117310,329.045898 
z"/>
<path fill="#171717" opacity="1.000000" stroke="none" 
	d="
M312.437683,330.607300 
	C312.322723,331.054932 312.038239,331.325653 311.753754,331.596405 
	C311.640961,331.477539 311.423492,331.261322 311.430450,331.253845 
	C311.696899,330.967468 311.983887,330.700195 312.437683,330.607300 
z"/>
<path fill="#171717" opacity="1.000000" stroke="none" 
	d="
M316.243164,328.396088 
	C315.821930,328.752228 315.501312,328.870270 315.180664,328.988342 
	C315.337280,328.459991 315.493896,327.931641 315.650513,327.403320 
	C315.881622,327.654877 316.112701,327.906433 316.243164,328.396088 
z"/>
<path fill="#0E0E0E" opacity="1.000000" stroke="none" 
	d="
M276.147003,306.869446 
	C273.752808,316.468597 267.775055,322.056641 258.561462,325.105957 
	C258.561462,309.077789 258.561462,293.389313 258.561462,277.718201 
	C270.298462,280.156189 279.220123,292.102600 276.147003,306.869446 
M262.174438,285.483459 
	C262.447540,287.242340 262.940735,288.999207 262.956696,290.760406 
	C263.037384,299.650177 262.993805,308.541077 262.993805,318.875397 
	C264.272003,316.870209 265.132568,316.137817 265.172699,315.362885 
	C265.637909,306.380859 266.110077,297.393585 266.191925,288.404175 
	C266.202484,287.244995 264.020569,286.065857 262.174438,285.483459 
z"/>
<path fill="#111111" opacity="1.000000" stroke="none" 
	d="
M306.168152,322.334106 
	C303.782593,323.423950 301.699982,324.302887 299.237946,325.341919 
	C299.237946,308.957458 299.237946,293.221924 299.237946,277.022797 
	C308.876801,279.620117 314.557465,286.028656 316.777649,295.058929 
	C319.502869,306.143616 315.716736,315.312317 306.168152,322.334106 
M306.398987,304.983002 
	C306.619049,299.667206 306.976074,294.351227 306.970184,289.035675 
	C306.968567,287.568756 305.885559,286.102997 305.298737,284.636719 
	C304.971191,284.800537 304.643677,284.964355 304.316132,285.128174 
	C304.316132,295.858398 304.316132,306.588623 304.316132,317.318878 
	C304.777527,317.346863 305.238892,317.374878 305.700287,317.402893 
	C305.910919,313.570984 306.121582,309.739105 306.398987,304.983002 
z"/>
<path fill="#0E0E0E" opacity="1.000000" stroke="none" 
	d="
M226.416534,316.835938 
	C225.638824,315.943176 225.329071,315.035706 225.010651,313.835999 
	C229.690735,313.421021 234.379471,313.298309 239.515747,313.391418 
	C239.971130,314.613953 239.978989,315.620636 239.986862,316.627319 
	C235.619415,316.691956 231.251953,316.756592 226.416534,316.835938 
z"/>
<path fill="#131313" opacity="1.000000" stroke="none" 
	d="
M240.383224,316.725159 
	C239.978989,315.620636 239.971130,314.613953 239.954041,313.229767 
	C239.921997,311.820404 239.899139,310.788544 239.949738,309.376099 
	C241.181488,309.465210 242.339798,309.934845 243.672913,310.836975 
	C243.519211,313.504150 246.103119,317.347870 240.383224,316.725159 
z"/>
<path fill="#232323" opacity="1.000000" stroke="none" 
	d="
M236.519104,276.638245 
	C234.609390,279.659546 226.863922,280.000031 224.737747,277.092651 
	C228.822067,276.740753 232.451172,276.623535 236.519104,276.638245 
z"/>
<path fill="#232323" opacity="1.000000" stroke="none" 
	d="
M221.614166,276.878021 
	C221.844574,277.395691 221.727386,277.983093 221.392181,278.781067 
	C221.204971,278.310364 221.235764,277.629059 221.614166,276.878021 
z"/>
<path fill="#232323" opacity="1.000000" stroke="none" 
	d="
M221.113525,307.273621 
	C221.436920,307.111298 221.652451,307.292725 221.907867,307.730530 
	C221.687958,307.799316 221.373917,307.676147 221.113525,307.273621 
z"/>
<path fill="#F3F3F3" opacity="1.000000" stroke="none" 
	d="
M371.047974,283.103607 
	C369.077301,288.689087 367.106689,294.274597 365.136047,299.860077 
	C364.861755,299.821838 364.587494,299.783600 364.313202,299.745361 
	C364.313202,293.686279 364.313202,287.627197 364.313202,281.106262 
	C366.201569,281.106262 368.138428,281.106262 370.514832,281.483398 
	C370.985565,282.274902 371.016754,282.689270 371.047974,283.103607 
z"/>
<path fill="#DADADA" opacity="1.000000" stroke="none" 
	d="
M371.491089,282.975830 
	C371.016754,282.689270 370.985565,282.274902 370.960846,281.548889 
	C375.157959,281.237183 379.348602,281.237183 383.539246,281.237183 
	C383.555115,281.774139 383.570984,282.311096 383.586853,282.848053 
	C379.702637,282.848053 375.818390,282.848053 371.491089,282.975830 
z"/>
<path fill="#F3F3F3" opacity="1.000000" stroke="none" 
	d="
M232.540802,281.154236 
	C232.963715,281.610718 232.954453,282.008118 232.972473,282.702454 
	C230.866013,289.064850 228.733383,295.130707 226.587631,301.191895 
	C226.555374,301.282990 226.334259,301.390472 226.246979,301.359894 
	C226.105087,301.310150 226.001022,301.152527 225.512115,300.490875 
	C225.163315,293.965485 225.183395,287.989655 225.375580,281.922485 
	C225.777740,281.685455 225.931992,281.482178 226.010406,281.221344 
	C228.043137,281.179291 230.075882,281.137207 232.540802,281.154236 
z"/>
<path fill="#232323" opacity="1.000000" stroke="none" 
	d="
M225.203476,282.013794 
	C225.183395,287.989655 225.163315,293.965485 225.224625,300.393677 
	C224.764877,301.200714 224.223724,301.555481 222.422516,302.736298 
	C223.124847,294.976929 223.746597,288.107727 224.736588,281.394653 
	C225.104813,281.550781 225.203476,282.013794 225.203476,282.013794 
z"/>
<path fill="#DADADA" opacity="1.000000" stroke="none" 
	d="
M225.375580,281.922485 
	C225.203476,282.013794 225.104813,281.550781 225.136520,281.316223 
	C225.168228,281.081665 225.607697,281.040710 225.809052,281.131042 
	C225.931992,281.482178 225.777740,281.685455 225.375580,281.922485 
z"/>
<path fill="#0E0E0E" opacity="1.000000" stroke="none" 
	d="
M225.609406,319.665009 
	C225.347733,319.377289 225.174789,318.760101 225.237579,318.075134 
	C225.548233,318.450073 225.623169,318.892822 225.609406,319.665009 
z"/>
<path fill="#DADADA" opacity="1.000000" stroke="none" 
	d="
M262.514343,285.189697 
	C264.020569,286.065857 266.202484,287.244995 266.191925,288.404175 
	C266.110077,297.393585 265.637909,306.380859 265.172699,315.362885 
	C265.132568,316.137817 264.272003,316.870209 262.993805,318.875397 
	C262.993805,308.541077 263.037384,299.650177 262.956696,290.760406 
	C262.940735,288.999207 262.447540,287.242340 262.514343,285.189697 
z"/>
<path fill="#F3F3F3" opacity="1.000000" stroke="none" 
	d="
M306.365601,305.445129 
	C306.121582,309.739105 305.910919,313.570984 305.700287,317.402893 
	C305.238892,317.374878 304.777527,317.346863 304.316132,317.318878 
	C304.316132,306.588623 304.316132,295.858398 304.316132,285.128174 
	C304.643677,284.964355 304.971191,284.800537 305.298737,284.636719 
	C305.885559,286.102997 306.968567,287.568756 306.970184,289.035675 
	C306.976074,294.351227 306.619049,299.667206 306.365601,305.445129 
z"/>
</svg>